<?xml version="1.0" standalone="no"?>
<!DOCTYPE svg PUBLIC "-//W3C//DTD SVG 20010904//EN"
 "http://www.w3.org/TR/2001/REC-SVG-20010904/DTD/svg10.dtd">
<svg version="1.0" xmlns="http://www.w3.org/2000/svg"
 width="576.000000pt" height="576.000000pt" viewBox="0 0 576.000000 576.000000"
 preserveAspectRatio="xMidYMid meet">
<metadata>
Created by potrace 1.11, written by Peter Selinger 2001-2013
</metadata>
<g transform="translate(0.000000,576.000000) scale(0.100000,-0.100000)"
fill="#000000" stroke="none">
<path d="M1460 5433 c-73 -25 -132 -74 -157 -132 -8 -18 -16 -58 -19 -90 -3
-31 -7 -61 -9 -68 -2 -7 -1 -15 4 -17 4 -3 5 -26 1 -51 -4 -25 -4 -47 -1 -50
4 -2 4 -31 1 -64 -3 -34 -3 -61 0 -61 3 0 3 -21 0 -47 -4 -40 -9 -48 -31 -54
-15 -3 -32 -3 -39 1 -6 4 -29 4 -50 0 -21 -4 -44 -4 -50 0 -6 4 -26 4 -43 1
-18 -4 -49 -4 -69 -1 -20 4 -57 4 -83 0 -25 -4 -47 -4 -50 -1 -2 4 -31 4 -65
1 -34 -3 -63 -3 -65 1 -3 3 -26 3 -52 -1 -26 -4 -51 -6 -55 -4 -8 5 -76 6
-166 2 -34 -2 -62 -1 -62 2 0 3 -26 4 -57 3 -32 -1 -76 -3 -98 -4 -68 -2 -129
-27 -173 -70 -72 -72 -74 -87 -69 -496 2 -197 7 -371 10 -388 3 -16 9 -41 11
-55 23 -107 106 -281 193 -402 73 -102 224 -258 328 -338 44 -34 87 -67 96
-75 69 -55 339 -198 464 -245 33 -12 69 -26 80 -30 17 -8 60 -22 75 -25 18 -4
100 -29 121 -37 15 -5 40 -12 55 -14 34 -6 49 -8 89 -17 41 -9 73 -14 139 -22
56 -7 68 -18 106 -90 8 -17 44 -70 50 -75 3 -3 22 -27 41 -55 18 -27 36 -52
39 -55 3 -3 30 -34 60 -70 101 -121 299 -309 348 -333 12 -5 22 -14 22 -18 0
-4 15 -16 34 -27 33 -19 33 -22 35 -88 0 -38 2 -111 3 -162 2 -50 1 -92 -2
-92 -6 0 -4 -170 2 -176 3 -2 2 -25 -2 -52 -3 -26 -3 -58 0 -71 3 -13 4 -40 2
-61 -3 -33 -8 -39 -33 -42 -17 -3 -31 -2 -33 1 -2 3 -42 4 -89 1 -46 -3 -97
-3 -113 0 -16 3 -48 3 -71 -1 -24 -3 -43 -2 -43 2 0 4 -8 6 -17 4 -10 -2 -63
-6 -118 -9 -103 -4 -234 -31 -247 -50 -4 -6 -8 -8 -8 -3 0 12 -91 -38 -145
-78 -124 -95 -194 -229 -200 -383 -2 -41 -5 -76 -7 -78 -8 -8 11 -133 24 -153
33 -53 -44 -51 1580 -51 1133 0 1510 3 1529 12 43 20 62 56 66 127 6 84 6 76
0 148 -18 200 -121 350 -302 438 -102 50 -174 66 -313 71 -67 2 -126 5 -130 5
-4 1 -10 1 -13 1 -14 -2 -79 -3 -169 -3 -208 1 -191 -3 -190 34 1 18 1 72 0
120 0 49 2 93 6 98 3 5 1 9 -4 9 -4 0 -6 23 -2 50 4 28 4 50 1 50 -3 0 -5 28
-4 62 2 35 3 116 3 180 l0 116 63 45 c34 25 82 62 107 83 68 59 230 223 275
279 22 28 43 52 46 55 10 9 166 234 179 258 6 13 17 21 25 18 7 -2 16 -2 20 2
3 3 16 7 28 8 12 0 40 4 62 8 22 5 51 10 65 12 14 2 34 6 45 8 11 3 43 10 70
16 28 6 57 14 65 17 8 3 24 8 35 10 72 13 300 106 435 176 81 42 295 177 310
196 3 3 28 24 55 45 157 125 313 313 398 480 106 208 117 277 116 713 -1 313
-3 352 -19 388 -21 48 -71 100 -114 119 -49 22 -96 36 -96 28 0 -4 -26 -6 -57
-5 -32 2 -78 3 -103 2 -25 0 -54 0 -65 1 -11 0 -36 0 -55 -1 -19 -1 -42 -1
-50 0 -34 2 -124 0 -130 -4 -3 -2 -12 0 -19 4 -7 5 -30 5 -51 1 -21 -4 -44 -4
-50 0 -6 4 -26 4 -43 1 -18 -4 -49 -4 -69 -1 -20 4 -57 4 -83 0 -25 -4 -47 -4
-50 -1 -2 4 -31 4 -64 1 -34 -3 -61 -3 -61 0 0 4 -22 4 -49 0 l-49 -6 -1 58
c-1 32 -2 64 -2 71 0 6 0 28 0 47 1 19 1 43 0 53 0 9 0 50 0 90 1 153 -12 198
-76 261 -72 70 17 66 -1532 65 -768 0 -1403 -3 -1411 -6z m-759 -1273 c22 4
41 4 44 0 3 -4 23 -4 45 0 21 4 42 5 44 3 3 -3 49 -4 103 -4 54 1 105 2 113 2
48 -2 114 0 119 3 3 2 15 0 26 -4 11 -4 34 -4 52 1 22 4 33 3 34 -5 1 -6 2
-36 4 -67 3 -66 14 -210 20 -254 2 -16 6 -48 9 -70 9 -73 17 -120 26 -165 5
-25 12 -56 15 -70 6 -32 23 -108 30 -137 17 -72 18 -77 16 -85 -1 -9 -79 20
-161 60 -326 156 -578 413 -595 607 -6 60 -7 90 -5 100 1 6 1 30 0 55 -1 33 1
42 10 34 7 -7 26 -8 51 -4z m3940 0 c33 3 62 3 64 -1 3 -3 26 -3 52 1 26 4 51
6 55 3 5 -2 29 -4 55 -3 52 1 76 1 96 -1 6 -1 29 -1 50 0 107 3 107 3 107 -21
0 -13 0 -36 0 -53 0 -60 -7 -141 -15 -170 -10 -34 -60 -128 -84 -157 -9 -11
-23 -28 -31 -38 -112 -133 -266 -251 -430 -332 -71 -34 -132 -61 -138 -59 -1
1 -15 -5 -32 -14 -36 -19 -44 -19 -37 0 11 28 76 330 81 377 3 26 8 58 11 70
8 39 28 266 29 341 0 40 4 49 21 52 41 9 70 11 77 5 4 -3 35 -3 69 0z"/>
</g>
</svg>
